<?xml version="1.0" encoding="utf-8"?>
<!-- Generator: Adobe Illustrator 24.1.0, SVG Export Plug-In . SVG Version: 6.00 Build 0)  -->
<svg version="1.1" id="icons" xmlns="http://www.w3.org/2000/svg" xmlns:xlink="http://www.w3.org/1999/xlink" x="0px" y="0px"
	 viewBox="0 0 512 512" style="enable-background:new 0 0 512 512;" xml:space="preserve">
<style type="text/css">
	.st0{fill:#B9AE92;}
</style>
<path class="st0" d="M113.7,375.9H104c-13.2,0-24,10.8-24,24v8c0,4.4,3.6,8,8,8h160c4.4,0,8-3.6,8-8v-8c0-13.2-10.8-24-24-24h-9.8
	l-4-16h93.7c13.2,0,24-10.8,24-24V120.1c0-13.2-10.8-24-24-24H24c-13.2,0-24,10.8-24,24V336c0,13.2,10.8,24,24,24h93.7L113.7,375.9z
	 M104,391.9h128c4.4,0,8,3.6,8,8H96C96,395.5,99.5,391.9,104,391.9z M205.7,375.9h-75.5l4-16h67.5L205.7,375.9z M24,112.1h287.8
	c4.4,0,8,3.6,8,8V312H16V120.1C16,115.7,19.6,112.1,24,112.1L24,112.1z M16,336v-8h152.1c-4.4,0-8,3.6-8,8s3.6,8,8,8
	c4.4,0,8-3.6,8-8s-3.6-8-8-8h151.7v8c0,4.4-3.6,8-8,8H168.2H24C19.6,344,16,340.4,16,336L16,336z"/>
<path class="st0" d="M488,96.1H376c-13.2,0-24,10.8-24,24v271.8c0,13.2,10.8,24,24,24h112c13.2,0,24-10.8,24-24V120.1
	C512,106.8,501.2,96.1,488,96.1L488,96.1z M368,144h128v8H368V144z M376,112.1h112c4.4,0,8,3.6,8,8v8H368v-8
	C368,115.7,371.6,112.1,376,112.1z M488,399.9H376c-4.4,0-8-3.6-8-8V168h128v223.9C496,396.3,492.4,399.9,488,399.9z"/>
<path class="st0" d="M432,264c13.2,0,24-10.8,24-24s-10.8-24-24-24s-24,10.8-24,24S418.7,264,432,264z M432,232c4.4,0,8,3.6,8,8
	s-3.6,8-8,8s-8-3.6-8-8S427.6,232,432,232z"/>
<path class="st0" d="M464,312h-64c-4.4,0-8,3.6-8,8s3.6,8,8,8h64c4.4,0,8-3.6,8-8S468.4,312,464,312z"/>
<path class="st0" d="M464,336h-64c-4.4,0-8,3.6-8,8s3.6,8,8,8h64c4.4,0,8-3.6,8-8S468.4,336,464,336z"/>
<path class="st0" d="M464,360h-64c-4.4,0-8,3.6-8,8s3.6,8,8,8h64c4.4,0,8-3.6,8-8S468.4,360,464,360z"/>
</svg>
