<?xml version="1.0" encoding="utf-8"?>
<!-- Generator: Adobe Illustrator 24.1.0, SVG Export Plug-In . SVG Version: 6.00 Build 0)  -->
<svg version="1.1" id="Calque_1" xmlns="http://www.w3.org/2000/svg" xmlns:xlink="http://www.w3.org/1999/xlink" x="0px" y="0px"
	 viewBox="0 0 24 24" style="enable-background:new 0 0 24 24;" xml:space="preserve">
<style type="text/css">
	.st0{fill:#B9AE92;}
	.st1{fill:#FFFFFF;fill-opacity:0;}
	.st2{fill:#FFFFFF;}
</style>
<g id="Calque_2_1_">
	<circle class="st0" cx="12" cy="12" r="11.4"/>
</g>
<g id="Calque_1_1_">
	<g>
		<g>
			<rect x="4" y="4" class="st1" width="16" height="16"/>
			<path class="st2" d="M7.1,6.2C6.9,6,6.5,6,6.2,6.2C6,6.5,6,6.9,6.2,7.1l10.7,10.7c0.3,0.3,0.7,0.3,0.9,0l0,0
				c0.3-0.3,0.3-0.7,0-0.9l0,0L7.1,6.2z"/>
			<path class="st2" d="M15.3,13.4l0.9,0.9c1-1.5,1-3.3-0.1-4.8c-0.2-0.3-0.7-0.4-0.9-0.1c-0.3,0.2-0.4,0.7-0.1,0.9
				C15.8,11.3,15.9,12.4,15.3,13.4z"/>
			<path class="st2" d="M18,12c0,1.1-0.4,2.1-1.2,2.9l0.9,0.9c1-1,1.5-2.4,1.6-3.9c0-1.7-0.9-3.4-2.3-4.5c-0.3-0.2-0.7-0.2-0.9,0.1
				c-0.2,0.3-0.2,0.7,0.1,0.9l0,0C17.3,9.4,18,10.6,18,12z"/>
			<path class="st2" d="M13,16.1l-3.4-2.3c-0.1-0.1-0.2-0.1-0.4-0.1H6.3v-3.2h2.2L7.1,9H5.7C5.3,9,5,9.3,5,9.7v4.6
				c0,0.4,0.3,0.7,0.7,0.7H9l4.3,2.9c0.1,0.1,0.2,0.1,0.4,0.1c0.4,0,0.7-0.3,0.7-0.7v-1.1L13,14.9V16.1z"/>
			<path class="st2" d="M13,7.9v3.2l1.3,1.3V6.7C14.3,6.3,14,6,13.7,6c-0.1,0-0.3,0.1-0.4,0.1l-3.1,2.2l0.9,0.9L13,7.9z"/>
		</g>
	</g>
</g>
</svg>
