<?xml version="1.0" encoding="utf-8"?>
<!-- Generator: Adobe Illustrator 24.1.0, SVG Export Plug-In . SVG Version: 6.00 Build 0)  -->
<svg version="1.1" id="Calque_1" xmlns="http://www.w3.org/2000/svg" xmlns:xlink="http://www.w3.org/1999/xlink" x="0px" y="0px"
	 viewBox="0 0 24 24" style="enable-background:new 0 0 24 24;" xml:space="preserve">
<style type="text/css">
	.st0{fill:#B9AE92;}
	.st1{fill:#FFFFFF;fill-opacity:0;}
	.st2{fill:#FFFFFF;}
</style>
<g id="Calque_2_1_">
	<circle class="st0" cx="12" cy="12" r="11.4"/>
</g>
<g id="Calque_1_1_">
	<g>
		<g>
			<rect x="4" y="4" class="st1" width="16" height="16"/>
			<path class="st2" d="M16.2,9.6c-0.2-0.3-0.7-0.4-0.9-0.1c-0.3,0.2-0.4,0.7-0.1,0.9c0.7,0.9,0.7,2.3,0,3.1
				c-0.2,0.3-0.2,0.7,0.1,0.9c0.1,0.1,0.3,0.1,0.4,0.1c0.2,0,0.4-0.1,0.5-0.2C17.3,13,17.3,11,16.2,9.6z"/>
			<path class="st2" d="M17.1,7.5c-0.3-0.2-0.7-0.2-0.9,0.1c-0.2,0.3-0.2,0.7,0.1,0.9l0,0C17.3,9.4,18,10.6,18,12s-0.7,2.6-1.7,3.5
				c-0.3,0.2-0.3,0.7-0.1,0.9l0,0c0.1,0.1,0.3,0.2,0.5,0.2c0.1,0,0.3-0.1,0.4-0.1c1.4-1.1,2.2-2.8,2.3-4.5
				C19.3,10.3,18.5,8.6,17.1,7.5z"/>
			<path class="st2" d="M14,6.1c-0.2-0.1-0.4-0.1-0.7,0L9,9H5.7C5.3,9,5,9.3,5,9.7v4.6c0,0.4,0.3,0.7,0.7,0.7H9l4.3,2.9
				c0.1,0.1,0.2,0.1,0.4,0.1c0.4,0,0.7-0.3,0.7-0.7V6.7C14.3,6.4,14.2,6.2,14,6.1z M13,16.1l-3.4-2.3c-0.1-0.1-0.2-0.1-0.4-0.1H6.3
				v-3.2h2.9c0.1,0,0.3-0.1,0.4-0.1L13,7.9V16.1z"/>
		</g>
	</g>
</g>
</svg>
